<svg class="canvas" viewBox="0 0 1920 1080" preserveAspectRatio="xMaxYMid slice" xmlns="http://www.w3.org/2000/svg" version="1.1" xmlns:xlink="http://www.w3.org/1999/xlink" xmlns:svgjs="http://svgjs.dev/svgjs"><rect width="1920" height="1080" fill="hsl(317, 65%, 15%)"></rect><defs><linearGradient x1="0.5" y1="0" x2="0" y2="1" id="SvgjsLinearGradient1231"><stop stop-color="#8a286f" offset="0"></stop><stop stop-color="#140a06" offset="0.1"></stop></linearGradient><linearGradient x1="0.5" y1="0" x2="0" y2="1" id="SvgjsLinearGradient1232"><stop stop-color="#8a286f" offset="0"></stop><stop stop-color="#140a06" offset="0.22857142857142856"></stop></linearGradient><linearGradient x1="0.5" y1="0" x2="0" y2="1" id="SvgjsLinearGradient1233"><stop stop-color="#7f288a" offset="0"></stop><stop stop-color="#140607" offset="0.3571428571428571"></stop></linearGradient><linearGradient x1="0.5" y1="0" x2="0" y2="1" id="SvgjsLinearGradient1234"><stop stop-color="#ecc0f2" offset="0"></stop><stop stop-color="#d74253" offset="0.48571428571428565"></stop></linearGradient><linearGradient x1="0.5" y1="0" x2="0" y2="1" id="SvgjsLinearGradient1235"><stop stop-color="#f2c0ed" offset="0"></stop><stop stop-color="#d74e42" offset="0.6142857142857142"></stop></linearGradient><linearGradient x1="0.5" y1="0" x2="0" y2="1" id="SvgjsLinearGradient1236"><stop stop-color="#f2c0e4" offset="0"></stop><stop stop-color="#d76c42" offset="0.7428571428571429"></stop></linearGradient><linearGradient x1="0.5" y1="0" x2="0" y2="1" id="SvgjsLinearGradient1237"><stop stop-color="#f2c0e4" offset="0"></stop><stop stop-color="#d76c42" offset="0.8714285714285713"></stop></linearGradient></defs><path d="M0,-579.8951256083017C65.31340012698642,-567.9588850760514,254.18488590357086,-540.7671692673206,391.8804007619185,-508.2776824148001C529.5759156202662,-475.78819556227955,703.5789403153673,-424.8989841846736,826.1730891500858,-384.95820449317847C948.7672379848044,-345.0174248016833,1016.9390678777437,-314.3594614038727,1127.4452937702301,-268.63300426582936C1237.9515196627167,-222.906547127786,1357.1179934667098,-148.7224414411731,1489.2104445050047,-110.59946166491846C1621.3028955432997,-72.47648188866384,1848.2017407508342,-51.6791816177378,1920,-39.89512560830166L 1920 1080 L 0 1080 Z" fill="url(&quot;#SvgjsLinearGradient1231&quot;)"></path><path d="M0,-410.488390356682C86.95031853336081,-395.98945176764164,356.9481363206602,-364.36241010162354,521.7019112001649,-323.49475882243985C686.4556860796696,-282.62710754325616,836.0483523009966,-212.24800520887877,988.5226492770281,-165.2824826815797C1140.9969462530596,-118.31696015428062,1281.3014679358582,-93.21492476041408,1436.5476930563536,-41.70162365864542C1591.793918176849,9.811677443123244,1839.4246155093922,112.88083266441934,1920,143.7973239290323L 1920 1080 L 0 1080 Z" fill="url(&quot;#SvgjsLinearGradient1232&quot;)"></path><path d="M0,-238.62261709686047C69.76834676928586,-223.06664774059422,285.8096657437993,-179.18789883899913,418.6100806157151,-145.28680095926305C551.4104954876309,-111.38570307952696,675.7471534230181,-70.82047236321463,796.8024892314945,-35.216029818443914C917.857825039971,0.38841272632679846,1023.5461665585277,27.31811240634554,1144.9420954665736,68.33985430936121C1266.3380243746196,109.3615962123769,1396.001745257532,167.31292873878226,1525.17806267977,210.9144215996501C1654.3543801020078,254.51591446051793,1854.1963437799616,310.10974649541515,1920,329.9488114745682L 1920 1080 L 0 1080 Z" fill="url(&quot;#SvgjsLinearGradient1233&quot;)"></path><path d="M0,-156.69193265500314C56.72951346008301,-135.2239942579121,229.00679398797791,-61.38874556750742,340.3770807604981,-27.884302272456907C451.74736753301823,5.620141022593607,569.9031423799349,18.915505318544152,668.2217206351208,44.33472711529994C766.5402988903068,69.75394891205573,825.1563643373091,95.63976462033183,930.2885502916133,124.63102850807783C1035.4207362459174,153.62229239582385,1182.6996991097594,186.75173345575513,1299.0148363609458,218.28231044177596C1415.329973612132,249.8128874277968,1524.681846525556,279.16734046414217,1628.1793737987318,313.8144904242028C1731.6769010719077,348.46164038426343,1871.3632289664554,407.44009023915027,1920,426.16521020213975L 1920 1080 L 0 1080 Z" fill="url(&quot;#SvgjsLinearGradient1234&quot;)"></path><path d="M0,11.78910491833308C34.70638970607177,30.3640856561604,124.36204463720615,103.73947011858779,208.2383382364306,123.23898934529699C292.114631835655,142.7385085720062,414.16513028915097,104.54891543170193,503.2577615953466,128.78622027858827C592.3503929015423,153.0235251254746,667.7154517023876,234.06226285840012,742.7941260736044,268.66281842661505C817.8728004448212,303.26337399483,879.5621064438137,319.93626732151324,953.7298078226474,336.3895536878779C1027.8975092014812,352.8428400542425,1100.5906839270629,349.55334955335195,1187.800334346607,367.3825366248029C1275.0099847661513,385.2117236962539,1400.652734138693,415.13611492559886,1476.987710339913,443.3646761165836C1553.3226865411332,471.59323730756836,1571.9748099439128,509.15935611327706,1645.8101915539273,536.7539037707115C1719.645573163942,564.348451428146,1874.3016985923211,596.9022856794438,1920,608.9319620611903L 1920 1080 L 0 1080 Z" fill="url(&quot;#SvgjsLinearGradient1235&quot;)"></path><path d="M0,56.956114185165426C59.952407178869606,68.34545291353334,251.921463873658,96.97728918272162,359.71444307321764,125.29214655537285C467.50742227277726,153.60700392802408,550.4745295854342,192.73480527205922,646.7578751973576,226.8452584210728C743.0412208092811,260.9557115700864,834.1785449269142,297.9394100146916,937.414516744758,329.95486544945436C1040.6504885626016,361.97032088421713,1148.9803726593586,372.77007653613333,1266.1737061044198,418.93799102964954C1383.367039549481,465.10590552316575,1531.6034684325282,565.3879033132037,1640.574517415125,606.9623524105516C1749.5455663977218,648.5368015078996,1873.4290862358541,658.1476300798727,1920,668.3846856137369L 1920 1080 L 0 1080 Z" fill="url(&quot;#SvgjsLinearGradient1236&quot;)"></path><path d="M0,210.89027906879502C48.453870492353275,227.6638248225584,179.74515089566154,273.5748967523737,290.72322295411965,311.53155359137526C401.70129501257776,349.4882104303768,550.0373921021093,403.1088515589473,665.8684323507485,438.6302201028043C781.6994725993878,474.15158864666125,881.9638579986154,499.77768597127664,985.7094644459555,524.659764854517C1089.4550708932957,549.5418437377573,1180.3408954541894,547.077298520147,1288.3420710347898,587.9226934022464C1396.3432466153902,628.7680882843458,1528.4401964353558,728.2851555836413,1633.7165179295575,769.7321341471137C1738.9928394237593,811.1791127105861,1872.2860863215928,825.4591596770863,1920,836.6045647830808L 1920 1080 L 0 1080 Z" fill="url(&quot;#SvgjsLinearGradient1237&quot;)"></path></svg>